Patient4_TMGait_0pt2_02_right_03_GRF.mot
version=1
nRows=39
nColumns=19
inDegrees=no
endheader
time	F1x	F1y	F1z	M1x	M1y	M1z	F2x	F2y	F2z	M2x	M2y	M2z	EC1x	EC1y	EC1z	EC2x	EC2y	EC2z
5.41	-18.4004	854.6781	44.2241	-261.9555	-50.13	891.3335	1.1811	63.0443	-6.8982	24.9408	6.3116	56.8568	-0.0592	0.0182	-0.0073	-0.0462	0.0165	0.9585
5.4325	-18.0313	865.4845	46.488	-264.9537	-51.7035	899.9666	-0.0066913	53.0879	-5.8882	20.9759	5.735	48.0257	-0.0592	0.0182	-0.0073	-0.0462	0.0165	0.9585
5.455	-17.396	872.7259	48.6593	-266.6892	-53.0377	904.6262	-1.0768	42.1715	-4.7397	16.6419	4.9997	38.2788	-0.0592	0.0182	-0.0073	-0.0462	0.0165	0.9585
5.4775	-16.4277	874.0178	50.4395	-266.4535	-53.8397	902.9766	-1.8237	31.3498	-3.5613	12.3583	4.1292	28.5645	-0.0592	0.0182	-0.0073	-0.0462	0.0165	0.9585
5.5	-15.0748	868.0906	51.6151	-263.91	-53.9017	893.7874	-2.1063	21.5926	-2.4734	8.505	3.1801	19.7654	-0.0592	0.0182	-0.0073	-0.0462	0.0165	0.9585
5.5225	-13.3118	855.0576	52.0851	-259.1595	-53.1347	877.2014	-1.9575	13.5805	-1.5741	5.3458	2.2544	12.5099	-0.0592	0.0182	-0.0073	-0.0462	0.0165	0.9585
5.545	-11.1406	836.2976	51.8604	-252.6918	-51.5707	854.6216	-1.5752	7.5879	-0.90118	2.9847	1.463	7.064	-0.0592	0.0182	-0.0073	-0.0462	0.0165	0.9585
5.5675	-8.5805	814.096	51.0333	-245.2707	-49.3274	828.3462	-1.124	3.4689	-0.44175	1.3628	0.855	3.3079	-0.0592	0.0182	-0.0073	-0.0462	0.0165	0.9585
5.59	-5.6598	791.1266	49.7334	-237.7654	-46.5564	801.0349	-0.70343	0.84487	-0.15592	0.32986	0.4292	0.89929	-0.0592	0.0182	-0.0073	-0.0462	0.0165	0.9585
5.6125	-2.4101	769.8945	48.0937	-230.9766	-43.4087	775.1548	-0.36177	-0.74245	0.0064439	-0.29532	0.15535	-0.57965	-0.0592	0.0182	-0.0073	-0.0462	0.0165	0.9585
5.635	1.1414	752.3192	46.2327	-225.5084	-40.0123	752.587	-0.11301	-1.7344	0.094571	-0.68739	-0.013064	-1.5358	-0.0592	0.0182	-0.0073	-0.0462	0.0165	0.9585
5.6575	4.9587	739.5021	44.2722	-221.6958	-36.4929	734.421	0.051955	-2.4951	0.15185	-0.99034	-0.12483	-2.3095	-0.0592	0.0182	-0.0073	-0.0462	0.0165	0.9585
5.68	8.9719	731.6844	42.3596	-219.586	-33.0045	720.9424	0.16043	-3.2773	0.21175	-1.3027	-0.2235	-3.1344	-0.0592	0.0182	-0.0073	-0.0462	0.0165	0.9585
5.7025	13.0561	728.3713	40.6698	-218.9777	-29.742	711.7806	0.24888	-4.1917	0.29579	-1.6661	-0.34293	-4.1027	-0.0592	0.0182	-0.0073	-0.0462	0.0165	0.9585
5.725	17.0238	728.5927	39.3938	-219.5084	-26.9324	706.1583	0.356	-5.1726	0.41649	-2.0543	-0.50728	-5.1373	-0.0592	0.0182	-0.0073	-0.0462	0.0165	0.9585
5.7475	20.6446	731.181	38.696	-220.7512	-24.7897	703.1312	0.51533	-5.9441	0.56982	-2.3573	-0.72442	-5.9523	-0.0592	0.0182	-0.0073	-0.0462	0.0165	0.9585
5.77	23.7208	735.0466	38.6542	-222.3182	-23.4444	701.8085	0.75399	-5.9902	0.73034	-2.368	-0.97876	-6.0179	-0.0592	0.0182	-0.0073	-0.0462	0.0165	0.9585
5.7925	26.1438	739.2697	39.2402	-223.8958	-22.9126	701.4107	1.087	-4.5304	0.85147	-1.776	-1.2221	-4.5344	-0.0592	0.0182	-0.0073	-0.0462	0.0165	0.9585
5.815	27.8742	742.9322	40.3581	-225.1867	-23.1314	701.1158	1.5114	-0.5207	0.85391	-0.16791	-1.363	-0.42987	-0.0592	0.0182	-0.0073	-0.0462	0.0165	0.9585
5.8375	28.9144	744.9619	41.8809	-225.8547	-23.997	699.9195	1.9967	7.2835	0.62169	2.9494	-1.2618	7.5774	-0.0592	0.0182	-0.0073	-0.0462	0.0165	0.9585
5.86	29.2868	744.1169	43.6534	-225.5191	-25.3719	696.6361	2.4675	20.1745	0.0042091	8.0875	-0.72533	20.8224	-0.0592	0.0182	-0.0073	-0.0462	0.0165	0.9585
5.8825	29.0256	739.0671	45.4732	-223.7815	-27.0734	689.9849	2.7828	39.1984	-1.172	15.6566	0.48504	40.3815	-0.0592	0.0182	-0.0073	-0.0462	0.0165	0.9585
5.905	28.197	728.5346	47.0935	-220.2712	-28.8642	678.7193	2.7065	64.6854	-3.0779	25.7789	2.6345	66.59	-0.0592	0.0182	-0.0073	-0.0462	0.0165	0.9585
5.9275	26.9201	711.535	48.2625	-214.7206	-30.4762	661.847	1.8777	95.7392	-5.8173	38.0869	5.9585	98.5166	-0.0592	0.0182	-0.0073	-0.0462	0.0165	0.9585
5.95	25.3659	687.7141	48.7818	-207.0649	-31.6667	638.9451	0.10621	130.0603	-9.3666	51.6521	10.4835	133.8005	-0.0592	0.0182	-0.0073	-0.0462	0.0165	0.9585
5.9725	23.7429	657.732	48.5622	-197.5507	-32.273	610.5184	-2.3798	164.5893	-13.3414	65.2617	15.6975	169.3038	-0.0592	0.0182	-0.0073	-0.0462	0.0165	0.9585
5.995	22.281	623.3613	47.6392	-186.758	-32.233	578.0989	-5.1623	197.04	-17.154	78.027	20.8217	202.6766	-0.0592	0.0182	-0.0073	-0.0462	0.0165	0.9585
6.0175	21.1794	587.0518	46.1397	-175.4621	-31.5744	543.8609	-7.906	226.6702	-20.3476	89.6716	25.2665	233.1651	-0.0592	0.0182	-0.0073	-0.0462	0.0165	0.9585
6.04	20.5226	551.188	44.227	-164.4031	-30.3947	509.9601	-10.3841	253.7215	-22.7367	100.2981	28.7762	261.0371	-0.0592	0.0182	-0.0073	-0.0462	0.0165	0.9585
6.0625	20.2561	517.5074	42.0697	-154.1067	-28.8421	477.9975	-12.4399	278.6873	-24.3706	110.0957	31.3617	286.8145	-0.0592	0.0182	-0.0073	-0.0462	0.0165	0.9585
6.085	20.2387	486.9135	39.8435	-144.8308	-27.1055	448.8292	-13.975	301.8966	-25.3952	119.1814	33.1514	310.8369	-0.0592	0.0182	-0.0073	-0.0462	0.0165	0.9585
6.1075	20.3088	459.5937	37.7075	-136.6101	-25.3784	422.6617	-14.9576	323.4065	-25.9542	127.5661	34.2864	333.1532	-0.0592	0.0182	-0.0073	-0.0462	0.0165	0.9585
6.13	20.332	435.2729	35.7713	-129.339	-23.8129	399.2801	-15.4107	343.1433	-26.1816	135.2127	34.9065	353.6616	-0.0592	0.0182	-0.0073	-0.0462	0.0165	0.9585
6.1525	20.2289	413.4767	34.088	-122.8561	-22.4964	378.2838	-15.3905	361.1127	-26.2111	142.1194	35.1568	372.3359	-0.0592	0.0182	-0.0073	-0.0462	0.0165	0.9585
6.175	19.9918	393.7067	32.6689	-116.998	-21.4526	359.239	-14.9778	377.4924	-26.1455	148.3593	35.1614	389.3273	-0.0592	0.0182	-0.0073	-0.0462	0.0165	0.9585
6.1975	19.667	375.5349	31.4945	-111.6265	-20.6559	341.7575	-14.2865	392.5812	-26.0369	154.0603	35.0092	404.9208	-0.0592	0.0182	-0.0073	-0.0462	0.0165	0.9585
6.22	19.3063	358.613	30.5175	-106.6312	-20.0517	325.5211	-13.4554	406.6937	-25.9266	159.3575	34.7908	419.4351	-0.0592	0.0182	-0.0073	-0.0462	0.0165	0.9585
6.2425	18.9402	342.6138	29.6767	-101.9116	-19.5764	310.2345	-12.6344	420.1029	-25.8865	164.3663	34.6289	433.1571	-0.0592	0.0182	-0.0073	-0.0462	0.0165	0.9585
6.265	18.5839	327.1423	28.9031	-97.3502	-19.1607	295.5432	-11.9735	433.1034	-26.0107	169.2044	34.6699	446.4074	-0.0592	0.0182	-0.0073	-0.0462	0.0165	0.9585
